# xmcd
# Track frame offsets:
# 150
# 17185
# 35485
# 52885
# 68350
# 86292
# 102145
# 120107
# 138202
# 152927
#
# Disc length: 2253 seconds
# Revision: 0
# Processed by: cddbd v1.4PL0 Copyright (c) Steve Scherf et al.
# Submitted via: VisiTrax 2.9.5.180 - For more info visit www.synapsa.com
#
DISCID=6b08cb0a
DTITLE=Carl Perkins - Friends,Family and Legends
DYEAR=1900
DGENRE=
TTITLE0=Carl Perkins Special Guest Charlie Daniels - Pink Cadillac
TTITLE1=Carl Perkins Special Guest Chet Atkins and Steve Wariner - Birth Of Roc
TTITLE1=k and Roll
TTITLE2=Carl Perkins - Book Faded Brown
TTITLE3=Carl Perkins - Dont Stop The Music
TTITLE4=Carl Perkins Special Guest Chet Atkins and Chris Andrews - Wild Texas Wi
TTITLE4=nd
TTITLE5=Carl Perkins Special GuestTravis Tritt - Half The Time
TTITLE6=Carl Perkins - Make It Right
TTITLE7=Carl Perkins - Godfather Of Rock and Roll
TTITLE8=Carl Perkins - Of Love
TTITLE9=Carl Perkins - Don´t Let Go
EXTD=
EXTT0=
EXTT1=
EXTT2=
EXTT3=
EXTT4=
EXTT5=
EXTT6=
EXTT7=
EXTT8=
EXTT9=
PLAYORDER=
